<?xml version="1.0" standalone="no"?>
<!DOCTYPE svg PUBLIC "-//W3C//DTD SVG 20010904//EN"
 "http://www.w3.org/TR/2001/REC-SVG-20010904/DTD/svg10.dtd">
<svg version="1.0" xmlns="http://www.w3.org/2000/svg"
 width="300.000000pt" height="248.000000pt" viewBox="0 0 379.28 434.83">
 preserveAspectRatio="xMidYMid meet">
<g transform="translate(0.000000,248.000000) scale(0.100000,-0.100000)"
fill="#000000" stroke="none">
<path d="M1790 2330 c-25 -4 -65 -16 -90 -26 -60 -23 -172 -96 -160 -104 5 -3
-15 -31 -45 -62 -29 -31 -68 -85 -86 -120 -37 -71 -62 -165 -47 -170 5 -2 -2
-30 -17 -63 -15 -33 -44 -98 -65 -145 -48 -107 -68 -172 -54 -177 7 -2 -2 -40
-22 -97 -42 -121 -71 -258 -79 -376 -6 -87 -10 -101 -47 -165 -82 -140 -254
-381 -336 -467 -34 -36 -35 -38 -19 -62 13 -18 14 -31 8 -49 -25 -64 25 -97
146 -97 43 1 98 6 123 11 25 6 84 12 131 13 128 3 163 32 225 182 16 40 37 75
49 81 11 6 35 18 54 28 18 10 53 20 77 23 36 4 43 2 39 -10 -3 -8 -24 -25 -45
-37 -22 -12 -40 -24 -40 -27 0 -2 17 -4 39 -4 24 0 51 9 73 24 27 18 53 24
119 28 82 5 159 30 159 51 0 6 -25 7 -61 3 -34 -3 -67 -2 -73 3 -6 5 -20 11
-31 13 -11 3 3 4 32 4 37 -1 57 4 70 16 9 10 15 19 12 22 -2 2 -35 -3 -72 -11
-47 -10 -72 -12 -79 -5 -11 11 4 130 23 190 10 29 12 31 23 16 11 -15 15 -13
39 15 15 18 31 40 36 49 9 15 11 15 31 -3 12 -11 24 -15 28 -10 131 181 242
409 242 497 0 25 3 28 24 22 21 -5 24 -1 34 38 23 93 32 193 23 241 -7 38 -6
45 4 37 7 -6 16 -7 18 -3 7 11 -9 198 -17 212 -4 5 -2 12 4 16 13 8 13 79 1
123 -5 17 -6 32 -2 32 4 0 28 14 51 31 l44 32 -27 23 c-15 13 -45 29 -67 35
-22 7 -40 17 -40 23 0 19 -91 102 -135 124 -22 11 -67 25 -100 31 -64 12 -61
12 -125 1z m196 -39 c53 -24 120 -74 135 -103 9 -16 7 -23 -10 -35 -12 -8 -19
-18 -16 -23 3 -5 1 -12 -5 -15 -8 -5 -7 -11 2 -22 6 -8 14 -24 15 -36 4 -24
20 -37 45 -37 12 0 19 -11 23 -37 3 -21 8 -50 10 -65 3 -21 0 -28 -11 -28 -11
0 -14 -5 -10 -17 7 -18 25 -143 26 -177 0 -18 -2 -18 -26 5 l-27 24 7 -25 c24
-87 28 -144 16 -222 -15 -102 -27 -135 -42 -120 -19 19 -28 14 -28 -17 0 -43
-37 -156 -81 -244 -30 -61 -135 -234 -155 -256 -2 -2 -13 4 -25 15 -21 19 -22
19 -38 -5 -9 -14 -24 -34 -33 -45 -17 -21 -17 -20 -18 22 0 23 -4 42 -10 42
-5 0 -10 -7 -10 -17 0 -9 -12 -36 -26 -61 -19 -32 -29 -41 -37 -33 -16 16 -27
14 -27 -6 0 -9 -10 -27 -22 -40 l-22 -23 -22 21 -23 21 -33 -46 c-31 -45 -158
-283 -158 -298 0 -5 -14 -37 -31 -73 -35 -75 -76 -111 -137 -121 l-42 -7 96
169 c136 237 158 275 178 307 30 45 12 40 -20 -6 -74 -105 -165 -241 -228
-340 -38 -59 -76 -112 -85 -116 -82 -43 -340 -42 -334 2 1 11 102 174 208 337
82 125 109 170 102 170 -1 0 -68 -97 -147 -215 -80 -118 -147 -215 -150 -215
-3 0 -11 9 -18 20 -11 18 -9 24 18 52 70 69 310 410 364 516 9 18 21 30 26 27
4 -3 18 7 29 22 l20 28 1 -52 c0 -76 17 -73 23 5 2 37 8 76 13 87 6 15 -4 10
-38 -17 -26 -21 -49 -38 -52 -38 -11 0 -6 86 9 176 20 112 56 239 94 334 31
77 33 92 6 70 -13 -11 -12 -4 4 36 36 89 131 297 147 322 17 26 11 43 -8 24
-23 -23 -27 -12 -13 29 30 83 79 160 142 220 40 39 60 65 53 69 -15 9 112 75
181 95 68 19 164 13 225 -14z m242 -168 l37 -18 -30 -6 c-16 -4 -47 -7 -67 -8
-21 0 -38 -4 -38 -9 0 -4 18 -6 39 -4 70 7 81 -2 34 -26 -23 -12 -47 -22 -53
-22 -13 0 -45 69 -41 90 7 35 50 36 119 3z m-556 -1425 c-6 -18 -13 -59 -17
-91 -6 -54 -5 -59 14 -64 11 -3 18 -9 16 -14 -10 -15 32 -29 87 -30 85 -1 27
-17 -66 -18 -68 -1 -82 -4 -108 -26 -16 -14 -35 -25 -41 -25 -7 0 -4 5 6 11
38 22 61 89 63 178 1 75 3 86 24 103 29 24 35 18 22 -24z m-85 -30 c3 6 9 12
15 12 10 0 8 -134 -2 -144 -3 -2 -27 -7 -54 -11 l-49 -8 5 67 c3 38 13 77 23
93 l18 27 20 -25 c13 -16 21 -20 24 -11z m-103 -114 c-2 -53 -3 -56 -38 -75
l-36 -19 25 50 c14 28 30 62 35 76 5 13 11 24 12 24 2 0 2 -25 2 -56z"/>
<path d="M1947 2114 c-31 -17 -30 -15 -17 -48 7 -19 17 -26 35 -26 32 0 41 22
23 59 -13 28 -15 28 -41 15z"/>
<path d="M2136 1926 c3 -8 -4 -36 -16 -63 l-22 -48 -23 45 c-13 25 -24 37 -25
28 0 -28 -45 -121 -75 -156 -15 -18 -25 -35 -22 -38 8 -9 66 68 84 113 10 24
21 43 24 43 3 0 11 -12 17 -26 15 -32 29 -24 54 32 10 24 23 44 29 44 5 0 4 9
-3 20 -15 23 -30 27 -22 6z"/>
<path d="M1990 1447 c-6 -29 -24 -82 -41 -118 l-31 -64 -22 44 -22 43 -18 -48
c-25 -67 -108 -224 -118 -224 -4 0 -8 24 -8 53 l0 52 -32 -55 c-73 -129 -157
-215 -183 -189 -5 5 -10 41 -9 78 0 60 5 78 51 172 28 57 50 105 48 107 -5 6
-77 -126 -102 -187 -24 -59 -32 -172 -13 -201 23 -36 153 69 198 161 21 42 32
35 32 -19 l0 -25 26 24 c31 29 89 130 111 194 l16 47 21 -27 22 -28 31 49 c34
54 49 96 59 167 9 64 -2 60 -16 -6z"/>
<path d="M1376 953 c-8 -26 -68 -80 -110 -100 l-31 -14 35 6 c19 3 46 14 60
24 30 22 63 76 57 93 -2 8 -7 4 -11 -9z"/>
<path d="M1548 613 c7 -3 16 -2 19 1 4 3 -2 6 -13 5 -11 0 -14 -3 -6 -6z"/>
<path d="M1561 574 c0 -11 3 -14 6 -6 3 7 2 16 -1 19 -3 4 -6 -2 -5 -13z"/>
<path d="M111 2264 c0 -11 3 -14 6 -6 3 7 2 16 -1 19 -3 4 -6 -2 -5 -13z"/>
</g>
</svg>
