<svg id="Layer_1" data-name="Layer 1" xmlns="http://www.w3.org/2000/svg"
viewBox="0 0 300.000000 225.000000"
 preserveAspectRatio="xMidYMid meet">
<g transform="translate(0.000000,225.000000) scale(0.100000,-0.100000)"
fill="#000000" stroke="none">
<path d="M1645 1423 c-30 -7 -66 -43 -85 -87 -24 -53 -19 -62 35 -58 45 4 45
4 45 -28 0 -44 -44 -132 -79 -158 -17 -12 -56 -29 -88 -37 -62 -16 -223 -21
-223 -6 0 5 20 29 46 54 50 49 136 99 202 116 25 7 42 18 42 26 0 22 -345 22
-354 0 -3 -8 3 -20 13 -27 10 -7 35 -28 56 -47 38 -33 38 -34 18 -50 -30 -24
-77 -91 -69 -98 3 -4 56 -7 117 -7 89 -1 113 -4 120 -16 4 -8 24 -43 43 -77
l35 -63 -69 0 c-56 0 -70 -3 -70 -15 0 -13 29 -15 205 -15 176 0 205 2 205 15
0 12 -13 15 -55 15 l-55 0 -25 50 c-32 62 -31 67 4 75 41 9 120 81 142 130 27
59 26 175 -2 233 -29 60 -91 90 -154 75z m82 -38 c14 -4 32 -27 47 -59 43 -89
19 -207 -57 -273 -40 -35 -84 -50 -162 -56 -83 -7 -127 22 -55 36 83 17 154
106 166 210 l7 57 -47 0 c-57 0 -61 17 -11 67 35 35 52 38 112 18z m-298 -158
c-2 -2 -30 -18 -62 -36 l-58 -32 -39 35 -39 35 97 3 c93 3 110 2 101 -5z m194
-313 l27 -54 -53 0 -53 0 -27 55 -26 54 53 0 53 -1 26 -54z"/>
<path d="M1657 1364 c-14 -15 -6 -34 14 -34 14 0 19 5 17 17 -3 18 -20 27 -31
17z"/>
</g>
</svg>
